<svg xmlns="http://www.w3.org/2000/svg" viewBox="0 0 1080 490" width="1080" height="490" role="img" aria-label="Diagrama entidad-relación de la tienda" font-family="'Segoe UI', 'Helvetica Neue', Arial, 'DejaVu Sans', sans-serif"><title>Diagrama entidad-relación de la tienda</title><rect width="1080" height="490" fill="#FFFFFF"/><defs><marker id="a-ink" viewBox="0 0 10 10" refX="9" refY="5" markerWidth="8" markerHeight="8" orient="auto-start-reverse"><path d="M0,0 L10,5 L0,10 z" fill="#1E2933"/></marker><marker id="o-ink" viewBox="0 0 10 10" refX="9" refY="5" markerWidth="9" markerHeight="9" orient="auto-start-reverse"><path d="M0,0 L10,5 L0,10" fill="none" stroke="#1E2933" stroke-width="1.6" stroke-dasharray="none"/></marker><marker id="t-ink" viewBox="0 0 12 12" refX="11" refY="6" markerWidth="13" markerHeight="13" orient="auto-start-reverse"><path d="M0,0 L11,6 L0,12 z" fill="#FFFFFF" stroke="#1E2933" stroke-width="1.4" stroke-dasharray="none"/></marker><marker id="d-ink" viewBox="0 0 16 10" refX="1" refY="5" markerWidth="16" markerHeight="10" orient="auto-start-reverse"><path d="M1,5 L8,1 L15,5 L8,9 z" fill="#1E2933"/></marker><marker id="a-muted" viewBox="0 0 10 10" refX="9" refY="5" markerWidth="8" markerHeight="8" orient="auto-start-reverse"><path d="M0,0 L10,5 L0,10 z" fill="#5C6B7A"/></marker><marker id="o-muted" viewBox="0 0 10 10" refX="9" refY="5" markerWidth="9" markerHeight="9" orient="auto-start-reverse"><path d="M0,0 L10,5 L0,10" fill="none" stroke="#5C6B7A" stroke-width="1.6" stroke-dasharray="none"/></marker><marker id="t-muted" viewBox="0 0 12 12" refX="11" refY="6" markerWidth="13" markerHeight="13" orient="auto-start-reverse"><path d="M0,0 L11,6 L0,12 z" fill="#FFFFFF" stroke="#5C6B7A" stroke-width="1.4" stroke-dasharray="none"/></marker><marker id="d-muted" viewBox="0 0 16 10" refX="1" refY="5" markerWidth="16" markerHeight="10" orient="auto-start-reverse"><path d="M1,5 L8,1 L15,5 L8,9 z" fill="#5C6B7A"/></marker><marker id="a-line" viewBox="0 0 10 10" refX="9" refY="5" markerWidth="8" markerHeight="8" orient="auto-start-reverse"><path d="M0,0 L10,5 L0,10 z" fill="#8795A3"/></marker><marker id="o-line" viewBox="0 0 10 10" refX="9" refY="5" markerWidth="9" markerHeight="9" orient="auto-start-reverse"><path d="M0,0 L10,5 L0,10" fill="none" stroke="#8795A3" stroke-width="1.6" stroke-dasharray="none"/></marker><marker id="t-line" viewBox="0 0 12 12" refX="11" refY="6" markerWidth="13" markerHeight="13" orient="auto-start-reverse"><path d="M0,0 L11,6 L0,12 z" fill="#FFFFFF" stroke="#8795A3" stroke-width="1.4" stroke-dasharray="none"/></marker><marker id="d-line" viewBox="0 0 16 10" refX="1" refY="5" markerWidth="16" markerHeight="10" orient="auto-start-reverse"><path d="M1,5 L8,1 L15,5 L8,9 z" fill="#8795A3"/></marker><marker id="a-teal" viewBox="0 0 10 10" refX="9" refY="5" markerWidth="8" markerHeight="8" orient="auto-start-reverse"><path d="M0,0 L10,5 L0,10 z" fill="#0E6F72"/></marker><marker id="o-teal" viewBox="0 0 10 10" refX="9" refY="5" markerWidth="9" markerHeight="9" orient="auto-start-reverse"><path d="M0,0 L10,5 L0,10" fill="none" stroke="#0E6F72" stroke-width="1.6" stroke-dasharray="none"/></marker><marker id="t-teal" viewBox="0 0 12 12" refX="11" refY="6" markerWidth="13" markerHeight="13" orient="auto-start-reverse"><path d="M0,0 L11,6 L0,12 z" fill="#FFFFFF" stroke="#0E6F72" stroke-width="1.4" stroke-dasharray="none"/></marker><marker id="d-teal" viewBox="0 0 16 10" refX="1" refY="5" markerWidth="16" markerHeight="10" orient="auto-start-reverse"><path d="M1,5 L8,1 L15,5 L8,9 z" fill="#0E6F72"/></marker><marker id="a-amber" viewBox="0 0 10 10" refX="9" refY="5" markerWidth="8" markerHeight="8" orient="auto-start-reverse"><path d="M0,0 L10,5 L0,10 z" fill="#A35F00"/></marker><marker id="o-amber" viewBox="0 0 10 10" refX="9" refY="5" markerWidth="9" markerHeight="9" orient="auto-start-reverse"><path d="M0,0 L10,5 L0,10" fill="none" stroke="#A35F00" stroke-width="1.6" stroke-dasharray="none"/></marker><marker id="t-amber" viewBox="0 0 12 12" refX="11" refY="6" markerWidth="13" markerHeight="13" orient="auto-start-reverse"><path d="M0,0 L11,6 L0,12 z" fill="#FFFFFF" stroke="#A35F00" stroke-width="1.4" stroke-dasharray="none"/></marker><marker id="d-amber" viewBox="0 0 16 10" refX="1" refY="5" markerWidth="16" markerHeight="10" orient="auto-start-reverse"><path d="M1,5 L8,1 L15,5 L8,9 z" fill="#A35F00"/></marker><marker id="a-indigo" viewBox="0 0 10 10" refX="9" refY="5" markerWidth="8" markerHeight="8" orient="auto-start-reverse"><path d="M0,0 L10,5 L0,10 z" fill="#3949A0"/></marker><marker id="o-indigo" viewBox="0 0 10 10" refX="9" refY="5" markerWidth="9" markerHeight="9" orient="auto-start-reverse"><path d="M0,0 L10,5 L0,10" fill="none" stroke="#3949A0" stroke-width="1.6" stroke-dasharray="none"/></marker><marker id="t-indigo" viewBox="0 0 12 12" refX="11" refY="6" markerWidth="13" markerHeight="13" orient="auto-start-reverse"><path d="M0,0 L11,6 L0,12 z" fill="#FFFFFF" stroke="#3949A0" stroke-width="1.4" stroke-dasharray="none"/></marker><marker id="d-indigo" viewBox="0 0 16 10" refX="1" refY="5" markerWidth="16" markerHeight="10" orient="auto-start-reverse"><path d="M1,5 L8,1 L15,5 L8,9 z" fill="#3949A0"/></marker><marker id="a-rose" viewBox="0 0 10 10" refX="9" refY="5" markerWidth="8" markerHeight="8" orient="auto-start-reverse"><path d="M0,0 L10,5 L0,10 z" fill="#A83A3A"/></marker><marker id="o-rose" viewBox="0 0 10 10" refX="9" refY="5" markerWidth="9" markerHeight="9" orient="auto-start-reverse"><path d="M0,0 L10,5 L0,10" fill="none" stroke="#A83A3A" stroke-width="1.6" stroke-dasharray="none"/></marker><marker id="t-rose" viewBox="0 0 12 12" refX="11" refY="6" markerWidth="13" markerHeight="13" orient="auto-start-reverse"><path d="M0,0 L11,6 L0,12 z" fill="#FFFFFF" stroke="#A83A3A" stroke-width="1.4" stroke-dasharray="none"/></marker><marker id="d-rose" viewBox="0 0 16 10" refX="1" refY="5" markerWidth="16" markerHeight="10" orient="auto-start-reverse"><path d="M1,5 L8,1 L15,5 L8,9 z" fill="#A83A3A"/></marker></defs><line x1="52.0" y1="135.0" x2="17.0" y2="101.0" stroke="#1E2933" stroke-width="1.2"/><circle cx="17.0" cy="95.0" r="6" fill="#1E2933" stroke="#1E2933" stroke-width="1.4"/><text x="17.0" y="83.0" font-size="12" fill="#1E2933" text-anchor="middle" font-weight="700" font-family="Consolas, 'SF Mono', Menlo, 'DejaVu Sans Mono', monospace">id</text><line x1="90.66666666666667" y1="135.0" x2="79.0" y2="69.0" stroke="#1E2933" stroke-width="1.2"/><circle cx="79.0" cy="63.0" r="6" fill="#FFFFFF" stroke="#1E2933" stroke-width="1.4"/><text x="79.0" y="51.0" font-size="12" fill="#1E2933" text-anchor="middle" font-weight="400" font-family="Consolas, 'SF Mono', Menlo, 'DejaVu Sans Mono', monospace">nombre</text><line x1="129.33333333333334" y1="135.0" x2="141.0" y2="101.0" stroke="#1E2933" stroke-width="1.2"/><circle cx="141.0" cy="95.0" r="6" fill="#FFFFFF" stroke="#1E2933" stroke-width="1.4"/><text x="141.0" y="83.0" font-size="12" fill="#1E2933" text-anchor="middle" font-weight="400" font-family="Consolas, 'SF Mono', Menlo, 'DejaVu Sans Mono', monospace">email</text><line x1="168.0" y1="135.0" x2="203.0" y2="69.0" stroke="#1E2933" stroke-width="1.2"/><circle cx="203.0" cy="63.0" r="6" fill="#FFFFFF" stroke="#1E2933" stroke-width="1.4"/><text x="203.0" y="51.0" font-size="12" fill="#1E2933" text-anchor="middle" font-weight="400" font-family="Consolas, 'SF Mono', Menlo, 'DejaVu Sans Mono', monospace">fecha_alta</text><line x1="432.0" y1="135.0" x2="428.0" y2="101.0" stroke="#1E2933" stroke-width="1.2"/><circle cx="428.0" cy="95.0" r="6" fill="#1E2933" stroke="#1E2933" stroke-width="1.4"/><text x="428.0" y="83.0" font-size="12" fill="#1E2933" text-anchor="middle" font-weight="700" font-family="Consolas, 'SF Mono', Menlo, 'DejaVu Sans Mono', monospace">numero</text><line x1="490.0" y1="135.0" x2="490.0" y2="69.0" stroke="#1E2933" stroke-width="1.2"/><circle cx="490.0" cy="63.0" r="6" fill="#FFFFFF" stroke="#1E2933" stroke-width="1.4"/><text x="490.0" y="51.0" font-size="12" fill="#1E2933" text-anchor="middle" font-weight="400" font-family="Consolas, 'SF Mono', Menlo, 'DejaVu Sans Mono', monospace">fecha</text><line x1="548.0" y1="135.0" x2="552.0" y2="101.0" stroke="#1E2933" stroke-width="1.2"/><circle cx="552.0" cy="95.0" r="6" fill="#FFFFFF" stroke="#1E2933" stroke-width="1.4"/><text x="552.0" y="83.0" font-size="12" fill="#1E2933" text-anchor="middle" font-weight="400" font-family="Consolas, 'SF Mono', Menlo, 'DejaVu Sans Mono', monospace">estado</text><line x1="832.0" y1="135.0" x2="797.0" y2="101.0" stroke="#1E2933" stroke-width="1.2"/><circle cx="797.0" cy="95.0" r="6" fill="#1E2933" stroke="#1E2933" stroke-width="1.4"/><text x="797.0" y="83.0" font-size="12" fill="#1E2933" text-anchor="middle" font-weight="700" font-family="Consolas, 'SF Mono', Menlo, 'DejaVu Sans Mono', monospace">codigo</text><line x1="870.6666666666666" y1="135.0" x2="859.0" y2="69.0" stroke="#1E2933" stroke-width="1.2"/><circle cx="859.0" cy="63.0" r="6" fill="#FFFFFF" stroke="#1E2933" stroke-width="1.4"/><text x="859.0" y="51.0" font-size="12" fill="#1E2933" text-anchor="middle" font-weight="400" font-family="Consolas, 'SF Mono', Menlo, 'DejaVu Sans Mono', monospace">nombre</text><line x1="909.3333333333334" y1="135.0" x2="921.0" y2="101.0" stroke="#1E2933" stroke-width="1.2"/><circle cx="921.0" cy="95.0" r="6" fill="#FFFFFF" stroke="#1E2933" stroke-width="1.4"/><text x="921.0" y="83.0" font-size="12" fill="#1E2933" text-anchor="middle" font-weight="400" font-family="Consolas, 'SF Mono', Menlo, 'DejaVu Sans Mono', monospace">precio</text><line x1="948.0" y1="135.0" x2="983.0" y2="69.0" stroke="#1E2933" stroke-width="1.2"/><circle cx="983.0" cy="63.0" r="6" fill="#FFFFFF" stroke="#1E2933" stroke-width="1.4"/><text x="983.0" y="51.0" font-size="12" fill="#1E2933" text-anchor="middle" font-weight="400" font-family="Consolas, 'SF Mono', Menlo, 'DejaVu Sans Mono', monospace">stock</text><line x1="180" y1="160" x2="420" y2="160" stroke="#1E2933" stroke-width="1.5"/><line x1="560" y1="160" x2="820" y2="160" stroke="#1E2933" stroke-width="1.5"/><rect x="40" y="135.0" width="140" height="50" rx="2" fill="#E3F1F1" stroke="#0E6F72" stroke-width="1.8"/><text x="110.0" y="166.0" font-size="14" fill="#1E2933" text-anchor="middle" font-weight="700">CLIENTE</text><rect x="420" y="135.0" width="140" height="50" rx="2" fill="#E3F1F1" stroke="#0E6F72" stroke-width="1.8"/><text x="490.0" y="166.0" font-size="14" fill="#1E2933" text-anchor="middle" font-weight="700">PEDIDO</text><rect x="820" y="135.0" width="140" height="50" rx="2" fill="#E3F1F1" stroke="#0E6F72" stroke-width="1.8"/><text x="890.0" y="166.0" font-size="14" fill="#1E2933" text-anchor="middle" font-weight="700">PRODUCTO</text><path d="M300,125.0 L362.0,160 L300,195.0 L238.0,160 z" fill="#FBEFD9" stroke="#A35F00" stroke-width="1.6"/><text x="300" y="158" font-size="12.5" fill="#1E2933" text-anchor="middle" font-weight="700">REALIZA</text><text x="300" y="175" font-size="12" fill="#A35F00" text-anchor="middle" font-weight="700">1:N</text><path d="M700,125.0 L762.0,160 L700,195.0 L638.0,160 z" fill="#FBEFD9" stroke="#A35F00" stroke-width="1.6"/><text x="700" y="158" font-size="12.5" fill="#1E2933" text-anchor="middle" font-weight="700">CONTIENE</text><text x="700" y="175" font-size="12" fill="#A35F00" text-anchor="middle" font-weight="700">N:M</text><rect x="184.1875" y="138.125" width="43.625" height="16.25" fill="#FFFFFF"/><text x="206" y="150" font-size="12.5" fill="#A83A3A" text-anchor="middle" font-weight="700">(1,1)</text><rect x="372.1875" y="138.125" width="43.625" height="16.25" fill="#FFFFFF"/><text x="394" y="150" font-size="12.5" fill="#A83A3A" text-anchor="middle" font-weight="700">(0,n)</text><rect x="564.1875" y="138.125" width="43.625" height="16.25" fill="#FFFFFF"/><text x="586" y="150" font-size="12.5" fill="#A83A3A" text-anchor="middle" font-weight="700">(0,n)</text><rect x="772.1875" y="138.125" width="43.625" height="16.25" fill="#FFFFFF"/><text x="794" y="150" font-size="12.5" fill="#A83A3A" text-anchor="middle" font-weight="700">(1,n)</text><line x1="700.0" y1="195" x2="645.0" y2="229" stroke="#1E2933" stroke-width="1.2"/><circle cx="645.0" cy="235" r="6" fill="#FFFFFF" stroke="#1E2933" stroke-width="1.4"/><text x="645.0" y="257" font-size="12" fill="#1E2933" text-anchor="middle" font-weight="400" font-family="Consolas, 'SF Mono', Menlo, 'DejaVu Sans Mono', monospace">cantidad</text><line x1="700.0" y1="195" x2="755.0" y2="261" stroke="#1E2933" stroke-width="1.2"/><circle cx="755.0" cy="267" r="6" fill="#FFFFFF" stroke="#1E2933" stroke-width="1.4"/><text x="755.0" y="289" font-size="12" fill="#1E2933" text-anchor="middle" font-weight="400" font-family="Consolas, 'SF Mono', Menlo, 'DejaVu Sans Mono', monospace">precio_unitario</text><line x1="890.0" y1="185.0" x2="890.0" y2="380" stroke="#1E2933" stroke-width="1.5"/><path d="M890.0,255.0 L960.0,290 L890.0,325.0 L820.0,290 z" fill="#FBEFD9" stroke="#A35F00" stroke-width="1.6"/><text x="890.0" y="288" font-size="12.5" fill="#1E2933" text-anchor="middle" font-weight="700">PERTENECE</text><text x="890.0" y="305" font-size="12" fill="#A35F00" text-anchor="middle" font-weight="700">N:1</text><rect x="898.0" y="195.125" width="43.625" height="16.25" fill="#FFFFFF"/><text x="902.0" y="207.0" font-size="12.5" fill="#A83A3A" text-anchor="start" font-weight="700">(0,n)</text><rect x="898.0" y="358.125" width="43.625" height="16.25" fill="#FFFFFF"/><text x="902.0" y="370" font-size="12.5" fill="#A83A3A" text-anchor="start" font-weight="700">(0,1)</text><rect x="820" y="380" width="140" height="50" rx="2" fill="#E3F1F1" stroke="#0E6F72" stroke-width="1.8"/><text x="890.0" y="411" font-size="14" fill="#1E2933" text-anchor="middle" font-weight="700">CATEGORÍA</text><line x1="960" y1="394" x2="994" y2="394" stroke="#1E2933" stroke-width="1.2"/><circle cx="1000" cy="394" r="6" fill="#1E2933" stroke="#1E2933" stroke-width="1.4"/><text x="1012" y="398" font-size="12" fill="#1E2933" text-anchor="start" font-weight="700" font-family="Consolas, 'SF Mono', Menlo, 'DejaVu Sans Mono', monospace">id</text><line x1="960" y1="416" x2="994" y2="416" stroke="#1E2933" stroke-width="1.2"/><circle cx="1000" cy="416" r="6" fill="#FFFFFF" stroke="#1E2933" stroke-width="1.4"/><text x="1012" y="420" font-size="12" fill="#1E2933" text-anchor="start" font-weight="400" font-family="Consolas, 'SF Mono', Menlo, 'DejaVu Sans Mono', monospace">nombre</text><rect x="30" y="330" width="640" height="140" rx="8" fill="#F2F4F7" stroke="#8795A3" stroke-width="1"/><circle cx="52" cy="356" r="6" fill="#1E2933" stroke="#1E2933"/><text x="66" y="360" font-size="12.5" fill="#1E2933" text-anchor="start" font-weight="400">identificador (clave)</text><circle cx="252" cy="356" r="6" fill="#FFFFFF" stroke="#1E2933" stroke-width="1.4"/><text x="266" y="360" font-size="12.5" fill="#1E2933" text-anchor="start" font-weight="400">atributo</text><text x="380" y="360" font-size="12.5" fill="#A83A3A" text-anchor="start" font-weight="700">(mín,máx) en rojo: participación</text><text x="46" y="392" font-size="12.5" fill="#1E2933" text-anchor="start" font-weight="400">Se lee de una entidad a la otra pasando por la relación:</text><text x="46" y="411" font-size="12.5" fill="#1E2933" text-anchor="start" font-weight="400">un cliente realiza (0,n) pedidos; un pedido lo realiza (1,1) cliente.</text><text x="46" y="430" font-size="12.5" fill="#1E2933" text-anchor="start" font-weight="400">Un pedido contiene (1,n) productos; un producto está en (0,n) pedidos.</text><text x="46" y="449" font-size="12.5" fill="#1E2933" text-anchor="start" font-weight="400">Una relación N:M puede tener atributos propios: cantidad y precio_unitario.</text></svg>
