<svg xmlns="http://www.w3.org/2000/svg" viewBox="0 0 1000 400" width="1000" height="400" role="img" aria-label="Envíos al servidor y confirmaciones al insertar 5.000 filas de tres formas" font-family="'Segoe UI', 'Helvetica Neue', Arial, 'DejaVu Sans', sans-serif"><title>Envíos al servidor y confirmaciones al insertar 5.000 filas de tres formas</title><rect width="1000" height="400" fill="#FFFFFF"/><defs><marker id="a-ink" viewBox="0 0 10 10" refX="9" refY="5" markerWidth="8" markerHeight="8" orient="auto-start-reverse"><path d="M0,0 L10,5 L0,10 z" fill="#1E2933"/></marker><marker id="o-ink" viewBox="0 0 10 10" refX="9" refY="5" markerWidth="9" markerHeight="9" orient="auto-start-reverse"><path d="M0,0 L10,5 L0,10" fill="none" stroke="#1E2933" stroke-width="1.6" stroke-dasharray="none"/></marker><marker id="t-ink" viewBox="0 0 12 12" refX="11" refY="6" markerWidth="13" markerHeight="13" orient="auto-start-reverse"><path d="M0,0 L11,6 L0,12 z" fill="#FFFFFF" stroke="#1E2933" stroke-width="1.4" stroke-dasharray="none"/></marker><marker id="d-ink" viewBox="0 0 16 10" refX="1" refY="5" markerWidth="16" markerHeight="10" orient="auto-start-reverse"><path d="M1,5 L8,1 L15,5 L8,9 z" fill="#1E2933"/></marker><marker id="a-muted" viewBox="0 0 10 10" refX="9" refY="5" markerWidth="8" markerHeight="8" orient="auto-start-reverse"><path d="M0,0 L10,5 L0,10 z" fill="#5C6B7A"/></marker><marker id="o-muted" viewBox="0 0 10 10" refX="9" refY="5" markerWidth="9" markerHeight="9" orient="auto-start-reverse"><path d="M0,0 L10,5 L0,10" fill="none" stroke="#5C6B7A" stroke-width="1.6" stroke-dasharray="none"/></marker><marker id="t-muted" viewBox="0 0 12 12" refX="11" refY="6" markerWidth="13" markerHeight="13" orient="auto-start-reverse"><path d="M0,0 L11,6 L0,12 z" fill="#FFFFFF" stroke="#5C6B7A" stroke-width="1.4" stroke-dasharray="none"/></marker><marker id="d-muted" viewBox="0 0 16 10" refX="1" refY="5" markerWidth="16" markerHeight="10" orient="auto-start-reverse"><path d="M1,5 L8,1 L15,5 L8,9 z" fill="#5C6B7A"/></marker><marker id="a-line" viewBox="0 0 10 10" refX="9" refY="5" markerWidth="8" markerHeight="8" orient="auto-start-reverse"><path d="M0,0 L10,5 L0,10 z" fill="#8795A3"/></marker><marker id="o-line" viewBox="0 0 10 10" refX="9" refY="5" markerWidth="9" markerHeight="9" orient="auto-start-reverse"><path d="M0,0 L10,5 L0,10" fill="none" stroke="#8795A3" stroke-width="1.6" stroke-dasharray="none"/></marker><marker id="t-line" viewBox="0 0 12 12" refX="11" refY="6" markerWidth="13" markerHeight="13" orient="auto-start-reverse"><path d="M0,0 L11,6 L0,12 z" fill="#FFFFFF" stroke="#8795A3" stroke-width="1.4" stroke-dasharray="none"/></marker><marker id="d-line" viewBox="0 0 16 10" refX="1" refY="5" markerWidth="16" markerHeight="10" orient="auto-start-reverse"><path d="M1,5 L8,1 L15,5 L8,9 z" fill="#8795A3"/></marker><marker id="a-teal" viewBox="0 0 10 10" refX="9" refY="5" markerWidth="8" markerHeight="8" orient="auto-start-reverse"><path d="M0,0 L10,5 L0,10 z" fill="#0E6F72"/></marker><marker id="o-teal" viewBox="0 0 10 10" refX="9" refY="5" markerWidth="9" markerHeight="9" orient="auto-start-reverse"><path d="M0,0 L10,5 L0,10" fill="none" stroke="#0E6F72" stroke-width="1.6" stroke-dasharray="none"/></marker><marker id="t-teal" viewBox="0 0 12 12" refX="11" refY="6" markerWidth="13" markerHeight="13" orient="auto-start-reverse"><path d="M0,0 L11,6 L0,12 z" fill="#FFFFFF" stroke="#0E6F72" stroke-width="1.4" stroke-dasharray="none"/></marker><marker id="d-teal" viewBox="0 0 16 10" refX="1" refY="5" markerWidth="16" markerHeight="10" orient="auto-start-reverse"><path d="M1,5 L8,1 L15,5 L8,9 z" fill="#0E6F72"/></marker><marker id="a-amber" viewBox="0 0 10 10" refX="9" refY="5" markerWidth="8" markerHeight="8" orient="auto-start-reverse"><path d="M0,0 L10,5 L0,10 z" fill="#A35F00"/></marker><marker id="o-amber" viewBox="0 0 10 10" refX="9" refY="5" markerWidth="9" markerHeight="9" orient="auto-start-reverse"><path d="M0,0 L10,5 L0,10" fill="none" stroke="#A35F00" stroke-width="1.6" stroke-dasharray="none"/></marker><marker id="t-amber" viewBox="0 0 12 12" refX="11" refY="6" markerWidth="13" markerHeight="13" orient="auto-start-reverse"><path d="M0,0 L11,6 L0,12 z" fill="#FFFFFF" stroke="#A35F00" stroke-width="1.4" stroke-dasharray="none"/></marker><marker id="d-amber" viewBox="0 0 16 10" refX="1" refY="5" markerWidth="16" markerHeight="10" orient="auto-start-reverse"><path d="M1,5 L8,1 L15,5 L8,9 z" fill="#A35F00"/></marker><marker id="a-indigo" viewBox="0 0 10 10" refX="9" refY="5" markerWidth="8" markerHeight="8" orient="auto-start-reverse"><path d="M0,0 L10,5 L0,10 z" fill="#3949A0"/></marker><marker id="o-indigo" viewBox="0 0 10 10" refX="9" refY="5" markerWidth="9" markerHeight="9" orient="auto-start-reverse"><path d="M0,0 L10,5 L0,10" fill="none" stroke="#3949A0" stroke-width="1.6" stroke-dasharray="none"/></marker><marker id="t-indigo" viewBox="0 0 12 12" refX="11" refY="6" markerWidth="13" markerHeight="13" orient="auto-start-reverse"><path d="M0,0 L11,6 L0,12 z" fill="#FFFFFF" stroke="#3949A0" stroke-width="1.4" stroke-dasharray="none"/></marker><marker id="d-indigo" viewBox="0 0 16 10" refX="1" refY="5" markerWidth="16" markerHeight="10" orient="auto-start-reverse"><path d="M1,5 L8,1 L15,5 L8,9 z" fill="#3949A0"/></marker><marker id="a-rose" viewBox="0 0 10 10" refX="9" refY="5" markerWidth="8" markerHeight="8" orient="auto-start-reverse"><path d="M0,0 L10,5 L0,10 z" fill="#A83A3A"/></marker><marker id="o-rose" viewBox="0 0 10 10" refX="9" refY="5" markerWidth="9" markerHeight="9" orient="auto-start-reverse"><path d="M0,0 L10,5 L0,10" fill="none" stroke="#A83A3A" stroke-width="1.6" stroke-dasharray="none"/></marker><marker id="t-rose" viewBox="0 0 12 12" refX="11" refY="6" markerWidth="13" markerHeight="13" orient="auto-start-reverse"><path d="M0,0 L11,6 L0,12 z" fill="#FFFFFF" stroke="#A83A3A" stroke-width="1.4" stroke-dasharray="none"/></marker><marker id="d-rose" viewBox="0 0 16 10" refX="1" refY="5" markerWidth="16" markerHeight="10" orient="auto-start-reverse"><path d="M1,5 L8,1 L15,5 L8,9 z" fill="#A83A3A"/></marker></defs><text x="30" y="30" font-size="14" fill="#1E2933" text-anchor="start" font-weight="700">Insertar 5.000 filas: cuántas veces se va al servidor y cuántas se confirma</text><text x="30" y="80" font-size="13" fill="#1E2933" text-anchor="start" font-weight="700">Una a una, con autocommit</text><text x="30" y="100" font-size="12" fill="#5C6B7A" text-anchor="start" font-weight="400">5.000 envíos  ·  5.000 confirmaciones</text><rect x="300" y="68" width="22" height="30" rx="3" fill="#F8E3E3" stroke="#A83A3A" stroke-width="1"/><rect x="326" y="68" width="8" height="30" rx="1" fill="#A83A3A" stroke="#A83A3A" stroke-width="1"/><rect x="338" y="68" width="22" height="30" rx="3" fill="#F8E3E3" stroke="#A83A3A" stroke-width="1"/><rect x="364" y="68" width="8" height="30" rx="1" fill="#A83A3A" stroke="#A83A3A" stroke-width="1"/><rect x="376" y="68" width="22" height="30" rx="3" fill="#F8E3E3" stroke="#A83A3A" stroke-width="1"/><rect x="402" y="68" width="8" height="30" rx="1" fill="#A83A3A" stroke="#A83A3A" stroke-width="1"/><rect x="414" y="68" width="22" height="30" rx="3" fill="#F8E3E3" stroke="#A83A3A" stroke-width="1"/><rect x="440" y="68" width="8" height="30" rx="1" fill="#A83A3A" stroke="#A83A3A" stroke-width="1"/><rect x="452" y="68" width="22" height="30" rx="3" fill="#F8E3E3" stroke="#A83A3A" stroke-width="1"/><rect x="478" y="68" width="8" height="30" rx="1" fill="#A83A3A" stroke="#A83A3A" stroke-width="1"/><rect x="490" y="68" width="22" height="30" rx="3" fill="#F8E3E3" stroke="#A83A3A" stroke-width="1"/><rect x="516" y="68" width="8" height="30" rx="1" fill="#A83A3A" stroke="#A83A3A" stroke-width="1"/><rect x="528" y="68" width="22" height="30" rx="3" fill="#F8E3E3" stroke="#A83A3A" stroke-width="1"/><rect x="554" y="68" width="8" height="30" rx="1" fill="#A83A3A" stroke="#A83A3A" stroke-width="1"/><rect x="566" y="68" width="22" height="30" rx="3" fill="#F8E3E3" stroke="#A83A3A" stroke-width="1"/><rect x="592" y="68" width="8" height="30" rx="1" fill="#A83A3A" stroke="#A83A3A" stroke-width="1"/><rect x="604" y="68" width="22" height="30" rx="3" fill="#F8E3E3" stroke="#A83A3A" stroke-width="1"/><rect x="630" y="68" width="8" height="30" rx="1" fill="#A83A3A" stroke="#A83A3A" stroke-width="1"/><rect x="642" y="68" width="22" height="30" rx="3" fill="#F8E3E3" stroke="#A83A3A" stroke-width="1"/><rect x="668" y="68" width="8" height="30" rx="1" fill="#A83A3A" stroke="#A83A3A" stroke-width="1"/><rect x="680" y="68" width="22" height="30" rx="3" fill="#F8E3E3" stroke="#A83A3A" stroke-width="1"/><rect x="706" y="68" width="8" height="30" rx="1" fill="#A83A3A" stroke="#A83A3A" stroke-width="1"/><rect x="718" y="68" width="22" height="30" rx="3" fill="#F8E3E3" stroke="#A83A3A" stroke-width="1"/><rect x="744" y="68" width="8" height="30" rx="1" fill="#A83A3A" stroke="#A83A3A" stroke-width="1"/><rect x="756" y="68" width="22" height="30" rx="3" fill="#F8E3E3" stroke="#A83A3A" stroke-width="1"/><rect x="782" y="68" width="8" height="30" rx="1" fill="#A83A3A" stroke="#A83A3A" stroke-width="1"/><rect x="794" y="68" width="22" height="30" rx="3" fill="#F8E3E3" stroke="#A83A3A" stroke-width="1"/><rect x="820" y="68" width="8" height="30" rx="1" fill="#A83A3A" stroke="#A83A3A" stroke-width="1"/><text x="838" y="88" font-size="14" fill="#5C6B7A" text-anchor="start" font-weight="400">…</text><text x="866" y="88" font-size="13" fill="#A83A3A" text-anchor="start" font-weight="700">879 ms</text><text x="30" y="172" font-size="13" fill="#1E2933" text-anchor="start" font-weight="700">Una a una, en una transacción</text><text x="30" y="192" font-size="12" fill="#5C6B7A" text-anchor="start" font-weight="400">5.000 envíos  ·  1 confirmación</text><rect x="300" y="160" width="22" height="30" rx="3" fill="#FBEFD9" stroke="#A35F00" stroke-width="1"/><rect x="326" y="160" width="22" height="30" rx="3" fill="#FBEFD9" stroke="#A35F00" stroke-width="1"/><rect x="352" y="160" width="22" height="30" rx="3" fill="#FBEFD9" stroke="#A35F00" stroke-width="1"/><rect x="378" y="160" width="22" height="30" rx="3" fill="#FBEFD9" stroke="#A35F00" stroke-width="1"/><rect x="404" y="160" width="22" height="30" rx="3" fill="#FBEFD9" stroke="#A35F00" stroke-width="1"/><rect x="430" y="160" width="22" height="30" rx="3" fill="#FBEFD9" stroke="#A35F00" stroke-width="1"/><rect x="456" y="160" width="22" height="30" rx="3" fill="#FBEFD9" stroke="#A35F00" stroke-width="1"/><rect x="482" y="160" width="22" height="30" rx="3" fill="#FBEFD9" stroke="#A35F00" stroke-width="1"/><rect x="508" y="160" width="22" height="30" rx="3" fill="#FBEFD9" stroke="#A35F00" stroke-width="1"/><rect x="534" y="160" width="22" height="30" rx="3" fill="#FBEFD9" stroke="#A35F00" stroke-width="1"/><rect x="560" y="160" width="22" height="30" rx="3" fill="#FBEFD9" stroke="#A35F00" stroke-width="1"/><rect x="586" y="160" width="22" height="30" rx="3" fill="#FBEFD9" stroke="#A35F00" stroke-width="1"/><rect x="612" y="160" width="22" height="30" rx="3" fill="#FBEFD9" stroke="#A35F00" stroke-width="1"/><rect x="638" y="160" width="22" height="30" rx="3" fill="#FBEFD9" stroke="#A35F00" stroke-width="1"/><text x="670" y="180" font-size="14" fill="#5C6B7A" text-anchor="start" font-weight="400">…</text><rect x="690" y="160" width="8" height="30" rx="1" fill="#A35F00" stroke="#A35F00" stroke-width="1"/><text x="712" y="180" font-size="13" fill="#A35F00" text-anchor="start" font-weight="700">279 ms</text><text x="30" y="264" font-size="13" fill="#1E2933" text-anchor="start" font-weight="700">En lote, en una transacción</text><text x="30" y="284" font-size="12" fill="#5C6B7A" text-anchor="start" font-weight="400">10 envíos de 500  ·  1 confirmación</text><rect x="300" y="252" width="110" height="30" rx="3" fill="#E3F1F1" stroke="#0E6F72" stroke-width="1"/><text x="355.0" y="272" font-size="11" fill="#1E2933" text-anchor="middle" font-weight="400">500 INSERT</text><rect x="414" y="252" width="110" height="30" rx="3" fill="#E3F1F1" stroke="#0E6F72" stroke-width="1"/><text x="469.0" y="272" font-size="11" fill="#1E2933" text-anchor="middle" font-weight="400">500 INSERT</text><rect x="528" y="252" width="110" height="30" rx="3" fill="#E3F1F1" stroke="#0E6F72" stroke-width="1"/><text x="583.0" y="272" font-size="11" fill="#1E2933" text-anchor="middle" font-weight="400">500 INSERT</text><text x="648" y="272" font-size="14" fill="#5C6B7A" text-anchor="start" font-weight="400">…</text><rect x="668" y="252" width="8" height="30" rx="1" fill="#0E6F72" stroke="#0E6F72" stroke-width="1"/><text x="690" y="272" font-size="13" fill="#0E6F72" text-anchor="start" font-weight="700">221 ms</text><rect x="300" y="336" width="22" height="18" rx="3" fill="#F8E3E3" stroke="#A83A3A" stroke-width="1"/><text x="330" y="350" font-size="12" fill="#1E2933" text-anchor="start" font-weight="400">envío al servidor</text><rect x="470" y="336" width="8" height="18" rx="1" fill="#A83A3A" stroke="#A83A3A" stroke-width="1"/><text x="486" y="350" font-size="12" fill="#1E2933" text-anchor="start" font-weight="400">confirmación (commit: escribir en disco)</text><text x="30" y="384" font-size="12" fill="#5C6B7A" text-anchor="start" font-weight="400" font-style="italic">Tiempos medidos con CargaMasiva y el servidor en el mismo equipo. Por la red, cada envío cuesta mucho más.</text></svg>
