<svg xmlns="http://www.w3.org/2000/svg" viewBox="0 0 900 510" width="900" height="510" role="img" aria-label="Árbol DOM del catálogo en XML" font-family="'Segoe UI', 'Helvetica Neue', Arial, 'DejaVu Sans', sans-serif"><title>Árbol DOM del catálogo en XML</title><rect width="900" height="510" fill="#FFFFFF"/><defs><marker id="a-ink" viewBox="0 0 10 10" refX="9" refY="5" markerWidth="8" markerHeight="8" orient="auto-start-reverse"><path d="M0,0 L10,5 L0,10 z" fill="#1E2933"/></marker><marker id="o-ink" viewBox="0 0 10 10" refX="9" refY="5" markerWidth="9" markerHeight="9" orient="auto-start-reverse"><path d="M0,0 L10,5 L0,10" fill="none" stroke="#1E2933" stroke-width="1.6" stroke-dasharray="none"/></marker><marker id="t-ink" viewBox="0 0 12 12" refX="11" refY="6" markerWidth="13" markerHeight="13" orient="auto-start-reverse"><path d="M0,0 L11,6 L0,12 z" fill="#FFFFFF" stroke="#1E2933" stroke-width="1.4" stroke-dasharray="none"/></marker><marker id="d-ink" viewBox="0 0 16 10" refX="1" refY="5" markerWidth="16" markerHeight="10" orient="auto-start-reverse"><path d="M1,5 L8,1 L15,5 L8,9 z" fill="#1E2933"/></marker><marker id="a-muted" viewBox="0 0 10 10" refX="9" refY="5" markerWidth="8" markerHeight="8" orient="auto-start-reverse"><path d="M0,0 L10,5 L0,10 z" fill="#5C6B7A"/></marker><marker id="o-muted" viewBox="0 0 10 10" refX="9" refY="5" markerWidth="9" markerHeight="9" orient="auto-start-reverse"><path d="M0,0 L10,5 L0,10" fill="none" stroke="#5C6B7A" stroke-width="1.6" stroke-dasharray="none"/></marker><marker id="t-muted" viewBox="0 0 12 12" refX="11" refY="6" markerWidth="13" markerHeight="13" orient="auto-start-reverse"><path d="M0,0 L11,6 L0,12 z" fill="#FFFFFF" stroke="#5C6B7A" stroke-width="1.4" stroke-dasharray="none"/></marker><marker id="d-muted" viewBox="0 0 16 10" refX="1" refY="5" markerWidth="16" markerHeight="10" orient="auto-start-reverse"><path d="M1,5 L8,1 L15,5 L8,9 z" fill="#5C6B7A"/></marker><marker id="a-line" viewBox="0 0 10 10" refX="9" refY="5" markerWidth="8" markerHeight="8" orient="auto-start-reverse"><path d="M0,0 L10,5 L0,10 z" fill="#8795A3"/></marker><marker id="o-line" viewBox="0 0 10 10" refX="9" refY="5" markerWidth="9" markerHeight="9" orient="auto-start-reverse"><path d="M0,0 L10,5 L0,10" fill="none" stroke="#8795A3" stroke-width="1.6" stroke-dasharray="none"/></marker><marker id="t-line" viewBox="0 0 12 12" refX="11" refY="6" markerWidth="13" markerHeight="13" orient="auto-start-reverse"><path d="M0,0 L11,6 L0,12 z" fill="#FFFFFF" stroke="#8795A3" stroke-width="1.4" stroke-dasharray="none"/></marker><marker id="d-line" viewBox="0 0 16 10" refX="1" refY="5" markerWidth="16" markerHeight="10" orient="auto-start-reverse"><path d="M1,5 L8,1 L15,5 L8,9 z" fill="#8795A3"/></marker><marker id="a-teal" viewBox="0 0 10 10" refX="9" refY="5" markerWidth="8" markerHeight="8" orient="auto-start-reverse"><path d="M0,0 L10,5 L0,10 z" fill="#0E6F72"/></marker><marker id="o-teal" viewBox="0 0 10 10" refX="9" refY="5" markerWidth="9" markerHeight="9" orient="auto-start-reverse"><path d="M0,0 L10,5 L0,10" fill="none" stroke="#0E6F72" stroke-width="1.6" stroke-dasharray="none"/></marker><marker id="t-teal" viewBox="0 0 12 12" refX="11" refY="6" markerWidth="13" markerHeight="13" orient="auto-start-reverse"><path d="M0,0 L11,6 L0,12 z" fill="#FFFFFF" stroke="#0E6F72" stroke-width="1.4" stroke-dasharray="none"/></marker><marker id="d-teal" viewBox="0 0 16 10" refX="1" refY="5" markerWidth="16" markerHeight="10" orient="auto-start-reverse"><path d="M1,5 L8,1 L15,5 L8,9 z" fill="#0E6F72"/></marker><marker id="a-amber" viewBox="0 0 10 10" refX="9" refY="5" markerWidth="8" markerHeight="8" orient="auto-start-reverse"><path d="M0,0 L10,5 L0,10 z" fill="#A35F00"/></marker><marker id="o-amber" viewBox="0 0 10 10" refX="9" refY="5" markerWidth="9" markerHeight="9" orient="auto-start-reverse"><path d="M0,0 L10,5 L0,10" fill="none" stroke="#A35F00" stroke-width="1.6" stroke-dasharray="none"/></marker><marker id="t-amber" viewBox="0 0 12 12" refX="11" refY="6" markerWidth="13" markerHeight="13" orient="auto-start-reverse"><path d="M0,0 L11,6 L0,12 z" fill="#FFFFFF" stroke="#A35F00" stroke-width="1.4" stroke-dasharray="none"/></marker><marker id="d-amber" viewBox="0 0 16 10" refX="1" refY="5" markerWidth="16" markerHeight="10" orient="auto-start-reverse"><path d="M1,5 L8,1 L15,5 L8,9 z" fill="#A35F00"/></marker><marker id="a-indigo" viewBox="0 0 10 10" refX="9" refY="5" markerWidth="8" markerHeight="8" orient="auto-start-reverse"><path d="M0,0 L10,5 L0,10 z" fill="#3949A0"/></marker><marker id="o-indigo" viewBox="0 0 10 10" refX="9" refY="5" markerWidth="9" markerHeight="9" orient="auto-start-reverse"><path d="M0,0 L10,5 L0,10" fill="none" stroke="#3949A0" stroke-width="1.6" stroke-dasharray="none"/></marker><marker id="t-indigo" viewBox="0 0 12 12" refX="11" refY="6" markerWidth="13" markerHeight="13" orient="auto-start-reverse"><path d="M0,0 L11,6 L0,12 z" fill="#FFFFFF" stroke="#3949A0" stroke-width="1.4" stroke-dasharray="none"/></marker><marker id="d-indigo" viewBox="0 0 16 10" refX="1" refY="5" markerWidth="16" markerHeight="10" orient="auto-start-reverse"><path d="M1,5 L8,1 L15,5 L8,9 z" fill="#3949A0"/></marker><marker id="a-rose" viewBox="0 0 10 10" refX="9" refY="5" markerWidth="8" markerHeight="8" orient="auto-start-reverse"><path d="M0,0 L10,5 L0,10 z" fill="#A83A3A"/></marker><marker id="o-rose" viewBox="0 0 10 10" refX="9" refY="5" markerWidth="9" markerHeight="9" orient="auto-start-reverse"><path d="M0,0 L10,5 L0,10" fill="none" stroke="#A83A3A" stroke-width="1.6" stroke-dasharray="none"/></marker><marker id="t-rose" viewBox="0 0 12 12" refX="11" refY="6" markerWidth="13" markerHeight="13" orient="auto-start-reverse"><path d="M0,0 L11,6 L0,12 z" fill="#FFFFFF" stroke="#A83A3A" stroke-width="1.4" stroke-dasharray="none"/></marker><marker id="d-rose" viewBox="0 0 16 10" refX="1" refY="5" markerWidth="16" markerHeight="10" orient="auto-start-reverse"><path d="M1,5 L8,1 L15,5 L8,9 z" fill="#A83A3A"/></marker></defs><rect x="380" y="20" width="130" height="32" rx="4" fill="#F2F4F7" stroke="#1E2933" stroke-width="1.3"/><text x="445.0" y="41" font-size="12.5" fill="#1E2933" text-anchor="middle" font-weight="600">Document</text><rect x="370" y="90" width="150" height="32" rx="4" fill="#E3F1F1" stroke="#0E6F72" stroke-width="1.3"/><text x="445.0" y="111" font-size="12.5" fill="#1E2933" text-anchor="middle" font-weight="600" font-family="Consolas, 'SF Mono', Menlo, 'DejaVu Sans Mono', monospace">&lt;catalogo&gt;</text><path d="M445,52 L445,71.0 L445,71.0 L445,90" fill="none" stroke="#8795A3" stroke-width="1.5" stroke-linejoin="round"/><rect x="150" y="165" width="190" height="32" rx="4" fill="#E3F1F1" stroke="#0E6F72" stroke-width="1.3"/><text x="245.0" y="186" font-size="12.5" fill="#1E2933" text-anchor="middle" font-weight="600" font-family="Consolas, 'SF Mono', Menlo, 'DejaVu Sans Mono', monospace">&lt;producto&gt;</text><rect x="560" y="165" width="190" height="32" rx="4" fill="#E3F1F1" stroke="#0E6F72" stroke-width="1.3"/><text x="655.0" y="186" font-size="12.5" fill="#1E2933" text-anchor="middle" font-weight="600" font-family="Consolas, 'SF Mono', Menlo, 'DejaVu Sans Mono', monospace">&lt;producto&gt;</text><path d="M445,122 L445,143.5 L245,143.5 L245,165" fill="none" stroke="#8795A3" stroke-width="1.5" stroke-linejoin="round"/><path d="M445,122 L445,143.5 L655,143.5 L655,165" fill="none" stroke="#8795A3" stroke-width="1.5" stroke-linejoin="round"/><rect x="20" y="245" width="150" height="32" rx="14" fill="#FBEFD9" stroke="#A35F00" stroke-width="1.3"/><text x="95.0" y="266" font-size="12.5" fill="#1E2933" text-anchor="middle" font-weight="600" font-family="Consolas, 'SF Mono', Menlo, 'DejaVu Sans Mono', monospace">codigo="TEC01"</text><rect x="190" y="245" width="120" height="32" rx="4" fill="#E3F1F1" stroke="#0E6F72" stroke-width="1.3"/><text x="250.0" y="266" font-size="12.5" fill="#1E2933" text-anchor="middle" font-weight="600" font-family="Consolas, 'SF Mono', Menlo, 'DejaVu Sans Mono', monospace">&lt;nombre&gt;</text><rect x="340" y="245" width="110" height="32" rx="4" fill="#E3F1F1" stroke="#0E6F72" stroke-width="1.3"/><text x="395.0" y="266" font-size="12.5" fill="#1E2933" text-anchor="middle" font-weight="600" font-family="Consolas, 'SF Mono', Menlo, 'DejaVu Sans Mono', monospace">&lt;precio&gt;</text><rect x="480" y="245" width="100" height="32" rx="4" fill="#E3F1F1" stroke="#0E6F72" stroke-width="1.3"/><text x="530.0" y="266" font-size="12.5" fill="#1E2933" text-anchor="middle" font-weight="600" font-family="Consolas, 'SF Mono', Menlo, 'DejaVu Sans Mono', monospace">&lt;stock&gt;</text><path d="M245,197 L245,221.0 L95,221.0 L95,245" fill="none" stroke="#8795A3" stroke-width="1.5" stroke-linejoin="round"/><path d="M245,197 L245,221.0 L250,221.0 L250,245" fill="none" stroke="#8795A3" stroke-width="1.5" stroke-linejoin="round"/><path d="M245,197 L245,221.0 L395,221.0 L395,245" fill="none" stroke="#8795A3" stroke-width="1.5" stroke-linejoin="round"/><path d="M245,197 L245,221.0 L530,221.0 L530,245" fill="none" stroke="#8795A3" stroke-width="1.5" stroke-linejoin="round"/><rect x="160" y="325" width="180" height="32" rx="4" fill="#FFFFFF" stroke="#8795A3" stroke-width="1.3"/><text x="250.0" y="346" font-size="12.5" fill="#1E2933" text-anchor="middle" font-weight="400" font-family="Consolas, 'SF Mono', Menlo, 'DejaVu Sans Mono', monospace">"Teclado mecánico"</text><rect x="355" y="325" width="80" height="32" rx="4" fill="#FFFFFF" stroke="#8795A3" stroke-width="1.3"/><text x="395.0" y="346" font-size="12.5" fill="#1E2933" text-anchor="middle" font-weight="400" font-family="Consolas, 'SF Mono', Menlo, 'DejaVu Sans Mono', monospace">"59.90"</text><rect x="500" y="325" width="60" height="32" rx="4" fill="#FFFFFF" stroke="#8795A3" stroke-width="1.3"/><text x="530.0" y="346" font-size="12.5" fill="#1E2933" text-anchor="middle" font-weight="400" font-family="Consolas, 'SF Mono', Menlo, 'DejaVu Sans Mono', monospace">"12"</text><path d="M250,277 L250,301.0 L250,301.0 L250,325" fill="none" stroke="#8795A3" stroke-width="1.5" stroke-linejoin="round"/><path d="M395,277 L395,301.0 L395,301.0 L395,325" fill="none" stroke="#8795A3" stroke-width="1.5" stroke-linejoin="round"/><path d="M530,277 L530,301.0 L530,301.0 L530,325" fill="none" stroke="#8795A3" stroke-width="1.5" stroke-linejoin="round"/><rect x="640" y="245" width="170" height="32" rx="14" fill="#FBEFD9" stroke="#A35F00" stroke-width="1.3"/><text x="725.0" y="266" font-size="12.5" fill="#1E2933" text-anchor="middle" font-weight="600" font-family="Consolas, 'SF Mono', Menlo, 'DejaVu Sans Mono', monospace">codigo="RAT01"</text><text x="860" y="266" font-size="16" fill="#5C6B7A" text-anchor="middle" font-weight="400">…</text><path d="M655,197 L655,221.0 L725,221.0 L725,245" fill="none" stroke="#8795A3" stroke-width="1.5" stroke-linejoin="round"/><rect x="30" y="400" width="30" height="18" rx="3" fill="#F2F4F7" stroke="#1E2933" stroke-width="1.2"/><text x="72" y="414" font-size="12.5" fill="#1E2933" text-anchor="start" font-weight="400">documento (raíz invisible)</text><rect x="30" y="426" width="30" height="18" rx="3" fill="#E3F1F1" stroke="#0E6F72" stroke-width="1.2"/><text x="72" y="440" font-size="12.5" fill="#1E2933" text-anchor="start" font-weight="400">elemento: getElementsByTagName, getAttribute</text><rect x="30" y="452" width="30" height="18" rx="9" fill="#FBEFD9" stroke="#A35F00" stroke-width="1.2"/><text x="72" y="466" font-size="12.5" fill="#1E2933" text-anchor="start" font-weight="400">atributo</text><rect x="30" y="478" width="30" height="18" rx="3" fill="#FFFFFF" stroke="#8795A3" stroke-width="1.2"/><text x="72" y="492" font-size="12.5" fill="#1E2933" text-anchor="start" font-weight="400">nodo de texto: getTextContent()</text></svg>
