<svg xmlns="http://www.w3.org/2000/svg" viewBox="0 0 880 460" width="880" height="460" role="img" aria-label="Conversión entre formatos a través de una representación común" font-family="'Segoe UI', 'Helvetica Neue', Arial, 'DejaVu Sans', sans-serif"><title>Conversión entre formatos a través de una representación común</title><rect width="880" height="460" fill="#FFFFFF"/><defs><marker id="a-ink" viewBox="0 0 10 10" refX="9" refY="5" markerWidth="8" markerHeight="8" orient="auto-start-reverse"><path d="M0,0 L10,5 L0,10 z" fill="#1E2933"/></marker><marker id="o-ink" viewBox="0 0 10 10" refX="9" refY="5" markerWidth="9" markerHeight="9" orient="auto-start-reverse"><path d="M0,0 L10,5 L0,10" fill="none" stroke="#1E2933" stroke-width="1.6" stroke-dasharray="none"/></marker><marker id="t-ink" viewBox="0 0 12 12" refX="11" refY="6" markerWidth="13" markerHeight="13" orient="auto-start-reverse"><path d="M0,0 L11,6 L0,12 z" fill="#FFFFFF" stroke="#1E2933" stroke-width="1.4" stroke-dasharray="none"/></marker><marker id="d-ink" viewBox="0 0 16 10" refX="1" refY="5" markerWidth="16" markerHeight="10" orient="auto-start-reverse"><path d="M1,5 L8,1 L15,5 L8,9 z" fill="#1E2933"/></marker><marker id="a-muted" viewBox="0 0 10 10" refX="9" refY="5" markerWidth="8" markerHeight="8" orient="auto-start-reverse"><path d="M0,0 L10,5 L0,10 z" fill="#5C6B7A"/></marker><marker id="o-muted" viewBox="0 0 10 10" refX="9" refY="5" markerWidth="9" markerHeight="9" orient="auto-start-reverse"><path d="M0,0 L10,5 L0,10" fill="none" stroke="#5C6B7A" stroke-width="1.6" stroke-dasharray="none"/></marker><marker id="t-muted" viewBox="0 0 12 12" refX="11" refY="6" markerWidth="13" markerHeight="13" orient="auto-start-reverse"><path d="M0,0 L11,6 L0,12 z" fill="#FFFFFF" stroke="#5C6B7A" stroke-width="1.4" stroke-dasharray="none"/></marker><marker id="d-muted" viewBox="0 0 16 10" refX="1" refY="5" markerWidth="16" markerHeight="10" orient="auto-start-reverse"><path d="M1,5 L8,1 L15,5 L8,9 z" fill="#5C6B7A"/></marker><marker id="a-line" viewBox="0 0 10 10" refX="9" refY="5" markerWidth="8" markerHeight="8" orient="auto-start-reverse"><path d="M0,0 L10,5 L0,10 z" fill="#8795A3"/></marker><marker id="o-line" viewBox="0 0 10 10" refX="9" refY="5" markerWidth="9" markerHeight="9" orient="auto-start-reverse"><path d="M0,0 L10,5 L0,10" fill="none" stroke="#8795A3" stroke-width="1.6" stroke-dasharray="none"/></marker><marker id="t-line" viewBox="0 0 12 12" refX="11" refY="6" markerWidth="13" markerHeight="13" orient="auto-start-reverse"><path d="M0,0 L11,6 L0,12 z" fill="#FFFFFF" stroke="#8795A3" stroke-width="1.4" stroke-dasharray="none"/></marker><marker id="d-line" viewBox="0 0 16 10" refX="1" refY="5" markerWidth="16" markerHeight="10" orient="auto-start-reverse"><path d="M1,5 L8,1 L15,5 L8,9 z" fill="#8795A3"/></marker><marker id="a-teal" viewBox="0 0 10 10" refX="9" refY="5" markerWidth="8" markerHeight="8" orient="auto-start-reverse"><path d="M0,0 L10,5 L0,10 z" fill="#0E6F72"/></marker><marker id="o-teal" viewBox="0 0 10 10" refX="9" refY="5" markerWidth="9" markerHeight="9" orient="auto-start-reverse"><path d="M0,0 L10,5 L0,10" fill="none" stroke="#0E6F72" stroke-width="1.6" stroke-dasharray="none"/></marker><marker id="t-teal" viewBox="0 0 12 12" refX="11" refY="6" markerWidth="13" markerHeight="13" orient="auto-start-reverse"><path d="M0,0 L11,6 L0,12 z" fill="#FFFFFF" stroke="#0E6F72" stroke-width="1.4" stroke-dasharray="none"/></marker><marker id="d-teal" viewBox="0 0 16 10" refX="1" refY="5" markerWidth="16" markerHeight="10" orient="auto-start-reverse"><path d="M1,5 L8,1 L15,5 L8,9 z" fill="#0E6F72"/></marker><marker id="a-amber" viewBox="0 0 10 10" refX="9" refY="5" markerWidth="8" markerHeight="8" orient="auto-start-reverse"><path d="M0,0 L10,5 L0,10 z" fill="#A35F00"/></marker><marker id="o-amber" viewBox="0 0 10 10" refX="9" refY="5" markerWidth="9" markerHeight="9" orient="auto-start-reverse"><path d="M0,0 L10,5 L0,10" fill="none" stroke="#A35F00" stroke-width="1.6" stroke-dasharray="none"/></marker><marker id="t-amber" viewBox="0 0 12 12" refX="11" refY="6" markerWidth="13" markerHeight="13" orient="auto-start-reverse"><path d="M0,0 L11,6 L0,12 z" fill="#FFFFFF" stroke="#A35F00" stroke-width="1.4" stroke-dasharray="none"/></marker><marker id="d-amber" viewBox="0 0 16 10" refX="1" refY="5" markerWidth="16" markerHeight="10" orient="auto-start-reverse"><path d="M1,5 L8,1 L15,5 L8,9 z" fill="#A35F00"/></marker><marker id="a-indigo" viewBox="0 0 10 10" refX="9" refY="5" markerWidth="8" markerHeight="8" orient="auto-start-reverse"><path d="M0,0 L10,5 L0,10 z" fill="#3949A0"/></marker><marker id="o-indigo" viewBox="0 0 10 10" refX="9" refY="5" markerWidth="9" markerHeight="9" orient="auto-start-reverse"><path d="M0,0 L10,5 L0,10" fill="none" stroke="#3949A0" stroke-width="1.6" stroke-dasharray="none"/></marker><marker id="t-indigo" viewBox="0 0 12 12" refX="11" refY="6" markerWidth="13" markerHeight="13" orient="auto-start-reverse"><path d="M0,0 L11,6 L0,12 z" fill="#FFFFFF" stroke="#3949A0" stroke-width="1.4" stroke-dasharray="none"/></marker><marker id="d-indigo" viewBox="0 0 16 10" refX="1" refY="5" markerWidth="16" markerHeight="10" orient="auto-start-reverse"><path d="M1,5 L8,1 L15,5 L8,9 z" fill="#3949A0"/></marker><marker id="a-rose" viewBox="0 0 10 10" refX="9" refY="5" markerWidth="8" markerHeight="8" orient="auto-start-reverse"><path d="M0,0 L10,5 L0,10 z" fill="#A83A3A"/></marker><marker id="o-rose" viewBox="0 0 10 10" refX="9" refY="5" markerWidth="9" markerHeight="9" orient="auto-start-reverse"><path d="M0,0 L10,5 L0,10" fill="none" stroke="#A83A3A" stroke-width="1.6" stroke-dasharray="none"/></marker><marker id="t-rose" viewBox="0 0 12 12" refX="11" refY="6" markerWidth="13" markerHeight="13" orient="auto-start-reverse"><path d="M0,0 L11,6 L0,12 z" fill="#FFFFFF" stroke="#A83A3A" stroke-width="1.4" stroke-dasharray="none"/></marker><marker id="d-rose" viewBox="0 0 16 10" refX="1" refY="5" markerWidth="16" markerHeight="10" orient="auto-start-reverse"><path d="M1,5 L8,1 L15,5 L8,9 z" fill="#A83A3A"/></marker></defs><rect x="330" y="150" width="260" height="90" rx="12" fill="#E3F1F1" stroke="#0E6F72" stroke-width="1.8"/><text x="460" y="185" font-size="15" fill="#1E2933" text-anchor="middle" font-weight="700" font-family="Consolas, 'SF Mono', Menlo, 'DejaVu Sans Mono', monospace">List&lt;ProductoDto&gt;</text><text x="460" y="210" font-size="12.5" fill="#5C6B7A" text-anchor="middle" font-weight="400" font-style="italic">los datos, sin formato</text><path d="M40,30 L226,30 L240,44 L240,100 L40,100 z" fill="#FFFFFF" stroke="#A35F00" stroke-width="1.5" stroke-linejoin="round"/><path d="M226,30 L226,44 L240,44" fill="none" stroke="#A35F00" stroke-width="1.5" stroke-linejoin="round"/><text x="140.0" y="61.1" font-size="13" fill="#1E2933" text-anchor="middle" font-weight="600" font-family="Consolas, 'SF Mono', Menlo, 'DejaVu Sans Mono', monospace">productos.csv</text><text x="140.0" y="79.1" font-size="12" fill="#5C6B7A" text-anchor="middle" font-weight="400" font-family="Consolas, 'SF Mono', Menlo, 'DejaVu Sans Mono', monospace">FormatoCsv</text><path d="M640,30 L826,30 L840,44 L840,100 L640,100 z" fill="#FFFFFF" stroke="#0E6F72" stroke-width="1.5" stroke-linejoin="round"/><path d="M826,30 L826,44 L840,44" fill="none" stroke="#0E6F72" stroke-width="1.5" stroke-linejoin="round"/><text x="740.0" y="61.1" font-size="13" fill="#1E2933" text-anchor="middle" font-weight="600" font-family="Consolas, 'SF Mono', Menlo, 'DejaVu Sans Mono', monospace">productos.json</text><text x="740.0" y="79.1" font-size="12" fill="#5C6B7A" text-anchor="middle" font-weight="400" font-family="Consolas, 'SF Mono', Menlo, 'DejaVu Sans Mono', monospace">FormatoJson</text><path d="M40,290 L226,290 L240,304 L240,360 L40,360 z" fill="#FFFFFF" stroke="#3949A0" stroke-width="1.5" stroke-linejoin="round"/><path d="M226,290 L226,304 L240,304" fill="none" stroke="#3949A0" stroke-width="1.5" stroke-linejoin="round"/><text x="140.0" y="321.09999999999997" font-size="13" fill="#1E2933" text-anchor="middle" font-weight="600" font-family="Consolas, 'SF Mono', Menlo, 'DejaVu Sans Mono', monospace">productos.xml</text><text x="140.0" y="339.09999999999997" font-size="12" fill="#5C6B7A" text-anchor="middle" font-weight="400" font-family="Consolas, 'SF Mono', Menlo, 'DejaVu Sans Mono', monospace">FormatoXml</text><path d="M640,290 L826,290 L840,304 L840,360 L640,360 z" fill="#FFFFFF" stroke="#A83A3A" stroke-width="1.5" stroke-linejoin="round"/><path d="M826,290 L826,304 L840,304" fill="none" stroke="#A83A3A" stroke-width="1.5" stroke-linejoin="round"/><text x="740.0" y="321.09999999999997" font-size="13" fill="#1E2933" text-anchor="middle" font-weight="600" font-family="Consolas, 'SF Mono', Menlo, 'DejaVu Sans Mono', monospace">productos.dat</text><text x="740.0" y="339.09999999999997" font-size="12" fill="#5C6B7A" text-anchor="middle" font-weight="400" font-family="Consolas, 'SF Mono', Menlo, 'DejaVu Sans Mono', monospace">FormatoBinario</text><path d="M240,57 L330,152" fill="none" stroke="#A35F00" stroke-width="1.5" marker-end="url(#a-amber)" stroke-linejoin="round"/><path d="M330,168 L240,73" fill="none" stroke="#A35F00" stroke-width="1.5" stroke-dasharray="6 4" stroke-linejoin="round"/><path d="M242.06323394373234,75.17785805171748 L240,73" fill="none" stroke="#A35F00" stroke-width="1.5" marker-end="url(#a-amber)" stroke-linejoin="round"/><path d="M640,57 L590,152" fill="none" stroke="#0E6F72" stroke-width="1.5" marker-end="url(#a-teal)" stroke-linejoin="round"/><path d="M590,168 L640,73" fill="none" stroke="#0E6F72" stroke-width="1.5" stroke-dasharray="6 4" stroke-linejoin="round"/><path d="M638.6027607015021,75.65475466714595 L640,73" fill="none" stroke="#0E6F72" stroke-width="1.5" marker-end="url(#a-teal)" stroke-linejoin="round"/><path d="M240,317 L330,222" fill="none" stroke="#3949A0" stroke-width="1.5" marker-end="url(#a-indigo)" stroke-linejoin="round"/><path d="M330,238 L240,333" fill="none" stroke="#3949A0" stroke-width="1.5" stroke-dasharray="6 4" stroke-linejoin="round"/><path d="M242.06323394373234,330.82214194828254 L240,333" fill="none" stroke="#3949A0" stroke-width="1.5" marker-end="url(#a-indigo)" stroke-linejoin="round"/><path d="M640,317 L590,222" fill="none" stroke="#A83A3A" stroke-width="1.5" marker-end="url(#a-rose)" stroke-linejoin="round"/><path d="M590,238 L640,333" fill="none" stroke="#A83A3A" stroke-width="1.5" stroke-dasharray="6 4" stroke-linejoin="round"/><path d="M638.6027607015021,330.34524533285406 L640,333" fill="none" stroke="#A83A3A" stroke-width="1.5" marker-end="url(#a-rose)" stroke-linejoin="round"/><path d="M40,400 L80,400" fill="none" stroke="#1E2933" stroke-width="1.5" marker-end="url(#a-ink)" stroke-linejoin="round"/><text x="90" y="404" font-size="12.5" fill="#1E2933" text-anchor="start" font-weight="400" font-family="Consolas, 'SF Mono', Menlo, 'DejaVu Sans Mono', monospace">leer(ruta)</text><path d="M250,400 L290,400" fill="none" stroke="#1E2933" stroke-width="1.5" stroke-dasharray="6 4" stroke-linejoin="round"/><path d="M287.0,400.0 L290,400" fill="none" stroke="#1E2933" stroke-width="1.5" marker-end="url(#a-ink)" stroke-linejoin="round"/><text x="300" y="404" font-size="12.5" fill="#1E2933" text-anchor="start" font-weight="400" font-family="Consolas, 'SF Mono', Menlo, 'DejaVu Sans Mono', monospace">escribir(ruta, productos)</text><text x="460" y="440" font-size="12.5" fill="#0E6F72" text-anchor="middle" font-weight="600">Convertir = leer con un formato + escribir con otro:  Formatos.convertir(origen, destino)</text></svg>
