<svg xmlns="http://www.w3.org/2000/svg" viewBox="0 0 1160 620" width="1160" height="620" role="img" aria-label="Diagrama de clases del componente de acceso a ficheros" font-family="'Segoe UI', 'Helvetica Neue', Arial, 'DejaVu Sans', sans-serif"><title>Diagrama de clases del componente de acceso a ficheros</title><rect width="1160" height="620" fill="#FFFFFF"/><defs><marker id="a-ink" viewBox="0 0 10 10" refX="9" refY="5" markerWidth="8" markerHeight="8" orient="auto-start-reverse"><path d="M0,0 L10,5 L0,10 z" fill="#1E2933"/></marker><marker id="o-ink" viewBox="0 0 10 10" refX="9" refY="5" markerWidth="9" markerHeight="9" orient="auto-start-reverse"><path d="M0,0 L10,5 L0,10" fill="none" stroke="#1E2933" stroke-width="1.6" stroke-dasharray="none"/></marker><marker id="t-ink" viewBox="0 0 12 12" refX="11" refY="6" markerWidth="13" markerHeight="13" orient="auto-start-reverse"><path d="M0,0 L11,6 L0,12 z" fill="#FFFFFF" stroke="#1E2933" stroke-width="1.4" stroke-dasharray="none"/></marker><marker id="d-ink" viewBox="0 0 16 10" refX="1" refY="5" markerWidth="16" markerHeight="10" orient="auto-start-reverse"><path d="M1,5 L8,1 L15,5 L8,9 z" fill="#1E2933"/></marker><marker id="a-muted" viewBox="0 0 10 10" refX="9" refY="5" markerWidth="8" markerHeight="8" orient="auto-start-reverse"><path d="M0,0 L10,5 L0,10 z" fill="#5C6B7A"/></marker><marker id="o-muted" viewBox="0 0 10 10" refX="9" refY="5" markerWidth="9" markerHeight="9" orient="auto-start-reverse"><path d="M0,0 L10,5 L0,10" fill="none" stroke="#5C6B7A" stroke-width="1.6" stroke-dasharray="none"/></marker><marker id="t-muted" viewBox="0 0 12 12" refX="11" refY="6" markerWidth="13" markerHeight="13" orient="auto-start-reverse"><path d="M0,0 L11,6 L0,12 z" fill="#FFFFFF" stroke="#5C6B7A" stroke-width="1.4" stroke-dasharray="none"/></marker><marker id="d-muted" viewBox="0 0 16 10" refX="1" refY="5" markerWidth="16" markerHeight="10" orient="auto-start-reverse"><path d="M1,5 L8,1 L15,5 L8,9 z" fill="#5C6B7A"/></marker><marker id="a-line" viewBox="0 0 10 10" refX="9" refY="5" markerWidth="8" markerHeight="8" orient="auto-start-reverse"><path d="M0,0 L10,5 L0,10 z" fill="#8795A3"/></marker><marker id="o-line" viewBox="0 0 10 10" refX="9" refY="5" markerWidth="9" markerHeight="9" orient="auto-start-reverse"><path d="M0,0 L10,5 L0,10" fill="none" stroke="#8795A3" stroke-width="1.6" stroke-dasharray="none"/></marker><marker id="t-line" viewBox="0 0 12 12" refX="11" refY="6" markerWidth="13" markerHeight="13" orient="auto-start-reverse"><path d="M0,0 L11,6 L0,12 z" fill="#FFFFFF" stroke="#8795A3" stroke-width="1.4" stroke-dasharray="none"/></marker><marker id="d-line" viewBox="0 0 16 10" refX="1" refY="5" markerWidth="16" markerHeight="10" orient="auto-start-reverse"><path d="M1,5 L8,1 L15,5 L8,9 z" fill="#8795A3"/></marker><marker id="a-teal" viewBox="0 0 10 10" refX="9" refY="5" markerWidth="8" markerHeight="8" orient="auto-start-reverse"><path d="M0,0 L10,5 L0,10 z" fill="#0E6F72"/></marker><marker id="o-teal" viewBox="0 0 10 10" refX="9" refY="5" markerWidth="9" markerHeight="9" orient="auto-start-reverse"><path d="M0,0 L10,5 L0,10" fill="none" stroke="#0E6F72" stroke-width="1.6" stroke-dasharray="none"/></marker><marker id="t-teal" viewBox="0 0 12 12" refX="11" refY="6" markerWidth="13" markerHeight="13" orient="auto-start-reverse"><path d="M0,0 L11,6 L0,12 z" fill="#FFFFFF" stroke="#0E6F72" stroke-width="1.4" stroke-dasharray="none"/></marker><marker id="d-teal" viewBox="0 0 16 10" refX="1" refY="5" markerWidth="16" markerHeight="10" orient="auto-start-reverse"><path d="M1,5 L8,1 L15,5 L8,9 z" fill="#0E6F72"/></marker><marker id="a-amber" viewBox="0 0 10 10" refX="9" refY="5" markerWidth="8" markerHeight="8" orient="auto-start-reverse"><path d="M0,0 L10,5 L0,10 z" fill="#A35F00"/></marker><marker id="o-amber" viewBox="0 0 10 10" refX="9" refY="5" markerWidth="9" markerHeight="9" orient="auto-start-reverse"><path d="M0,0 L10,5 L0,10" fill="none" stroke="#A35F00" stroke-width="1.6" stroke-dasharray="none"/></marker><marker id="t-amber" viewBox="0 0 12 12" refX="11" refY="6" markerWidth="13" markerHeight="13" orient="auto-start-reverse"><path d="M0,0 L11,6 L0,12 z" fill="#FFFFFF" stroke="#A35F00" stroke-width="1.4" stroke-dasharray="none"/></marker><marker id="d-amber" viewBox="0 0 16 10" refX="1" refY="5" markerWidth="16" markerHeight="10" orient="auto-start-reverse"><path d="M1,5 L8,1 L15,5 L8,9 z" fill="#A35F00"/></marker><marker id="a-indigo" viewBox="0 0 10 10" refX="9" refY="5" markerWidth="8" markerHeight="8" orient="auto-start-reverse"><path d="M0,0 L10,5 L0,10 z" fill="#3949A0"/></marker><marker id="o-indigo" viewBox="0 0 10 10" refX="9" refY="5" markerWidth="9" markerHeight="9" orient="auto-start-reverse"><path d="M0,0 L10,5 L0,10" fill="none" stroke="#3949A0" stroke-width="1.6" stroke-dasharray="none"/></marker><marker id="t-indigo" viewBox="0 0 12 12" refX="11" refY="6" markerWidth="13" markerHeight="13" orient="auto-start-reverse"><path d="M0,0 L11,6 L0,12 z" fill="#FFFFFF" stroke="#3949A0" stroke-width="1.4" stroke-dasharray="none"/></marker><marker id="d-indigo" viewBox="0 0 16 10" refX="1" refY="5" markerWidth="16" markerHeight="10" orient="auto-start-reverse"><path d="M1,5 L8,1 L15,5 L8,9 z" fill="#3949A0"/></marker><marker id="a-rose" viewBox="0 0 10 10" refX="9" refY="5" markerWidth="8" markerHeight="8" orient="auto-start-reverse"><path d="M0,0 L10,5 L0,10 z" fill="#A83A3A"/></marker><marker id="o-rose" viewBox="0 0 10 10" refX="9" refY="5" markerWidth="9" markerHeight="9" orient="auto-start-reverse"><path d="M0,0 L10,5 L0,10" fill="none" stroke="#A83A3A" stroke-width="1.6" stroke-dasharray="none"/></marker><marker id="t-rose" viewBox="0 0 12 12" refX="11" refY="6" markerWidth="13" markerHeight="13" orient="auto-start-reverse"><path d="M0,0 L11,6 L0,12 z" fill="#FFFFFF" stroke="#A83A3A" stroke-width="1.4" stroke-dasharray="none"/></marker><marker id="d-rose" viewBox="0 0 16 10" refX="1" refY="5" markerWidth="16" markerHeight="10" orient="auto-start-reverse"><path d="M1,5 L8,1 L15,5 L8,9 z" fill="#A83A3A"/></marker></defs><rect x="30" y="30" width="230" height="82.8" fill="#FFFFFF" stroke="#1E2933" stroke-width="1.5"/><text x="145.0" y="52" font-size="14" fill="#1E2933" text-anchor="middle" font-weight="700">ProductoService</text><line x1="30" y1="58" x2="260" y2="58" stroke="#1E2933" stroke-width="1.2"/><line x1="30" y1="68" x2="260" y2="68" stroke="#1E2933" stroke-width="1.2"/><text x="38" y="86.4" font-size="12" fill="#1E2933" text-anchor="start" font-weight="400" font-family="Consolas, 'SF Mono', Menlo, 'DejaVu Sans Mono', monospace">+ exportar(destino: Path): int</text><text x="38" y="103.8" font-size="12" fill="#1E2933" text-anchor="start" font-weight="400" font-family="Consolas, 'SF Mono', Menlo, 'DejaVu Sans Mono', monospace">…</text><rect x="330" y="30" width="300" height="131.6" fill="#FFFFFF" stroke="#0E6F72" stroke-width="1.5"/><rect x="330" y="30" width="300" height="42" fill="#E3F1F1" stroke="#0E6F72" stroke-width="1.5"/><text x="480.0" y="48" font-size="12" fill="#5C6B7A" text-anchor="middle" font-weight="400">«interface»</text><text x="480.0" y="66" font-size="14" fill="#1E2933" text-anchor="middle" font-weight="700" font-style="italic">ProductoRepository</text><line x1="330" y1="72" x2="630" y2="72" stroke="#0E6F72" stroke-width="1.2"/><line x1="330" y1="82" x2="630" y2="82" stroke="#0E6F72" stroke-width="1.2"/><text x="338" y="100.4" font-size="12" fill="#1E2933" text-anchor="start" font-weight="400" font-family="Consolas, 'SF Mono', Menlo, 'DejaVu Sans Mono', monospace">+ guardar(p: Producto)</text><text x="338" y="117.8" font-size="12" fill="#1E2933" text-anchor="start" font-weight="400" font-family="Consolas, 'SF Mono', Menlo, 'DejaVu Sans Mono', monospace">+ buscarPorCodigo(c): Optional&lt;…&gt;</text><text x="338" y="135.2" font-size="12" fill="#1E2933" text-anchor="start" font-weight="400" font-family="Consolas, 'SF Mono', Menlo, 'DejaVu Sans Mono', monospace">+ buscarTodos(): List&lt;Producto&gt;</text><text x="338" y="152.6" font-size="12" fill="#1E2933" text-anchor="start" font-weight="400" font-family="Consolas, 'SF Mono', Menlo, 'DejaVu Sans Mono', monospace">+ borrar(c: String): boolean</text><path d="M260,70 L326,70" fill="none" stroke="#1E2933" stroke-width="1.5" stroke-dasharray="6 4" stroke-linejoin="round"/><path d="M323.0,70.0 L326,70" fill="none" stroke="#1E2933" stroke-width="1.5" marker-end="url(#o-ink)" stroke-linejoin="round"/><rect x="225" y="260" width="245" height="54.675" fill="#FFFFFF" stroke="#8795A3" stroke-width="1.5"/><text x="347.5" y="282" font-size="14" fill="#1E2933" text-anchor="middle" font-weight="700">…Memoria</text><line x1="225" y1="288" x2="470" y2="288" stroke="#8795A3" stroke-width="1.2"/><text x="233" y="305.675" font-size="11.5" fill="#1E2933" text-anchor="start" font-weight="400" font-family="Consolas, 'SF Mono', Menlo, 'DejaVu Sans Mono', monospace">- datos: Map&lt;String, Producto&gt;</text><rect x="500" y="260" width="300" height="135.0" fill="#FFFFFF" stroke="#0E6F72" stroke-width="1.5"/><rect x="500" y="260" width="300" height="28" fill="#E3F1F1" stroke="#0E6F72" stroke-width="1.5"/><text x="650.0" y="282" font-size="14" fill="#1E2933" text-anchor="middle" font-weight="700">ProductoRepositoryFichero</text><line x1="500" y1="288" x2="800" y2="288" stroke="#0E6F72" stroke-width="1.2"/><text x="508" y="306.4" font-size="12" fill="#1E2933" text-anchor="start" font-weight="400" font-family="Consolas, 'SF Mono', Menlo, 'DejaVu Sans Mono', monospace">- ruta: Path</text><text x="508" y="323.8" font-size="12" fill="#1E2933" text-anchor="start" font-weight="400" font-family="Consolas, 'SF Mono', Menlo, 'DejaVu Sans Mono', monospace">- formato: FormatoProductos</text><text x="508" y="341.2" font-size="12" fill="#1E2933" text-anchor="start" font-weight="400" font-family="Consolas, 'SF Mono', Menlo, 'DejaVu Sans Mono', monospace">- datos: Map&lt;String, ProductoDto&gt;</text><line x1="500" y1="350.2" x2="800" y2="350.2" stroke="#0E6F72" stroke-width="1.2"/><text x="508" y="368.59999999999997" font-size="12" fill="#1E2933" text-anchor="start" font-weight="400" font-family="Consolas, 'SF Mono', Menlo, 'DejaVu Sans Mono', monospace">- cargar()</text><text x="508" y="386.0" font-size="12" fill="#1E2933" text-anchor="start" font-weight="400" font-family="Consolas, 'SF Mono', Menlo, 'DejaVu Sans Mono', monospace">- escribirFichero()</text><path d="M347,260 L347,230 L650,230" fill="none" stroke="#1E2933" stroke-width="1.5" stroke-dasharray="6 4" stroke-linejoin="round"/><path d="M650,260 L650,230" fill="none" stroke="#1E2933" stroke-width="1.5" stroke-dasharray="6 4" stroke-linejoin="round"/><path d="M480,230 L480,163.6" fill="none" stroke="#1E2933" stroke-width="1.5" stroke-dasharray="6 4" stroke-linejoin="round"/><path d="M480.0,166.6 L480,163.6" fill="none" stroke="#1E2933" stroke-width="1.5" marker-end="url(#t-ink)" stroke-linejoin="round"/><rect x="870" y="30" width="270" height="96.8" fill="#FFFFFF" stroke="#A35F00" stroke-width="1.5"/><rect x="870" y="30" width="270" height="42" fill="#FBEFD9" stroke="#A35F00" stroke-width="1.5"/><text x="1005.0" y="48" font-size="12" fill="#5C6B7A" text-anchor="middle" font-weight="400">«interface»</text><text x="1005.0" y="66" font-size="14" fill="#1E2933" text-anchor="middle" font-weight="700" font-style="italic">FormatoProductos</text><line x1="870" y1="72" x2="1140" y2="72" stroke="#A35F00" stroke-width="1.2"/><line x1="870" y1="82" x2="1140" y2="82" stroke="#A35F00" stroke-width="1.2"/><text x="878" y="100.4" font-size="12" fill="#1E2933" text-anchor="start" font-weight="400" font-family="Consolas, 'SF Mono', Menlo, 'DejaVu Sans Mono', monospace">+ leer(ruta): List&lt;ProductoDto&gt;</text><text x="878" y="117.8" font-size="12" fill="#1E2933" text-anchor="start" font-weight="400" font-family="Consolas, 'SF Mono', Menlo, 'DejaVu Sans Mono', monospace">+ escribir(ruta, productos)</text><path d="M800,290 L840,290 L840,70 L866,70" fill="none" stroke="#1E2933" stroke-width="1.5" marker-end="url(#o-ink)" stroke-linejoin="round"/><text x="848" y="285" font-size="13" fill="#1E2933" text-anchor="start" font-weight="700">1</text><rect x="960" y="186.8" width="160" height="34" rx="8" fill="#FFFFFF" stroke="#A35F00" stroke-width="1.5"/><text x="1040.0" y="207.55" font-size="12.5" fill="#1E2933" text-anchor="middle" font-weight="600" font-family="Consolas, 'SF Mono', Menlo, 'DejaVu Sans Mono', monospace">FormatoCsv</text><path d="M960,203.8 L935,203.8" fill="none" stroke="#1E2933" stroke-width="1.5" stroke-dasharray="6 4" stroke-linejoin="round"/><rect x="960" y="234.8" width="160" height="34" rx="8" fill="#FFFFFF" stroke="#A35F00" stroke-width="1.5"/><text x="1040.0" y="255.55" font-size="12.5" fill="#1E2933" text-anchor="middle" font-weight="600" font-family="Consolas, 'SF Mono', Menlo, 'DejaVu Sans Mono', monospace">FormatoJson</text><path d="M960,251.8 L935,251.8" fill="none" stroke="#1E2933" stroke-width="1.5" stroke-dasharray="6 4" stroke-linejoin="round"/><rect x="960" y="282.8" width="160" height="34" rx="8" fill="#FFFFFF" stroke="#A35F00" stroke-width="1.5"/><text x="1040.0" y="303.55" font-size="12.5" fill="#1E2933" text-anchor="middle" font-weight="600" font-family="Consolas, 'SF Mono', Menlo, 'DejaVu Sans Mono', monospace">FormatoXml</text><path d="M960,299.8 L935,299.8" fill="none" stroke="#1E2933" stroke-width="1.5" stroke-dasharray="6 4" stroke-linejoin="round"/><rect x="960" y="330.8" width="160" height="34" rx="8" fill="#FFFFFF" stroke="#A35F00" stroke-width="1.5"/><text x="1040.0" y="351.55" font-size="12.5" fill="#1E2933" text-anchor="middle" font-weight="600" font-family="Consolas, 'SF Mono', Menlo, 'DejaVu Sans Mono', monospace">FormatoBinario</text><path d="M960,347.8 L935,347.8" fill="none" stroke="#1E2933" stroke-width="1.5" stroke-dasharray="6 4" stroke-linejoin="round"/><path d="M935,347.8 L935,128.8" fill="none" stroke="#1E2933" stroke-width="1.5" stroke-dasharray="6 4" stroke-linejoin="round"/><path d="M935.0,131.8 L935,128.8" fill="none" stroke="#1E2933" stroke-width="1.5" marker-end="url(#t-ink)" stroke-linejoin="round"/><rect x="500" y="470" width="300" height="114.2" fill="#FFFFFF" stroke="#1E2933" stroke-width="1.5"/><rect x="500" y="470" width="300" height="42" fill="#F2F4F7" stroke="#1E2933" stroke-width="1.5"/><text x="650.0" y="488" font-size="12" fill="#5C6B7A" text-anchor="middle" font-weight="400">«record»</text><text x="650.0" y="506" font-size="14" fill="#1E2933" text-anchor="middle" font-weight="700">ProductoDto</text><line x1="500" y1="512" x2="800" y2="512" stroke="#1E2933" stroke-width="1.2"/><text x="508" y="530.4" font-size="12" fill="#1E2933" text-anchor="start" font-weight="400" font-family="Consolas, 'SF Mono', Menlo, 'DejaVu Sans Mono', monospace">codigo, nombre, precio, stock</text><line x1="500" y1="539.4" x2="800" y2="539.4" stroke="#1E2933" stroke-width="1.2"/><text x="508" y="557.8" font-size="12" fill="#1E2933" text-anchor="start" font-weight="400" font-family="Consolas, 'SF Mono', Menlo, 'DejaVu Sans Mono', monospace">+ desde(p: Producto): ProductoDto</text><text x="508" y="575.1999999999999" font-size="12" fill="#1E2933" text-anchor="start" font-weight="400" font-family="Consolas, 'SF Mono', Menlo, 'DejaVu Sans Mono', monospace">+ aProducto(): Producto</text><path d="M650,395.0 L650,466" fill="none" stroke="#1E2933" stroke-width="1.5" stroke-dasharray="6 4" stroke-linejoin="round"/><path d="M650.0,463.0 L650,466" fill="none" stroke="#1E2933" stroke-width="1.5" marker-end="url(#o-ink)" stroke-linejoin="round"/><path d="M1040,364.8 L1040,520 L804,520" fill="none" stroke="#1E2933" stroke-width="1.5" stroke-dasharray="6 4" stroke-linejoin="round"/><path d="M807.0,520.0 L804,520" fill="none" stroke="#1E2933" stroke-width="1.5" marker-end="url(#o-ink)" stroke-linejoin="round"/><rect x="150" y="470" width="250" height="52" fill="#FFFFFF" stroke="#A83A3A" stroke-width="1.5"/><rect x="150" y="470" width="250" height="42" fill="#F8E3E3" stroke="#A83A3A" stroke-width="1.5"/><text x="275.0" y="488" font-size="12" fill="#5C6B7A" text-anchor="middle" font-weight="400">RuntimeException</text><text x="275.0" y="506" font-size="14" fill="#1E2933" text-anchor="middle" font-weight="700">AccesoDatosException</text><line x1="150" y1="512" x2="400" y2="512" stroke="#A83A3A" stroke-width="1.2"/><path d="M560,395.0 L560,440 L275,440 L275,466" fill="none" stroke="#1E2933" stroke-width="1.5" stroke-dasharray="6 4" stroke-linejoin="round"/><path d="M275.0,463.0 L275,466" fill="none" stroke="#1E2933" stroke-width="1.5" marker-end="url(#o-ink)" stroke-linejoin="round"/><text x="420" y="434" font-size="12" fill="#5C6B7A" text-anchor="middle" font-weight="400" font-style="italic">lanza</text><text x="30" y="600" font-size="12.5" fill="#5C6B7A" text-anchor="start" font-weight="400" font-style="italic">Las flechas discontinuas con punta abierta indican «usa»; las de triángulo hueco, «implementa».</text></svg>
